<svg width="227" height="32" xmlns="http://www.w3.org/2000/svg"><path d="M18.625 19.872l-4.291-9.282h-.129L10 19.872h8.626zM.086 28.859L13.433.464c.128-.253.343-.464.73-.464h.428c.429 0 .6.211.73.464l13.218 28.395c.257.549-.086 1.097-.73 1.097h-3.733c-.644 0-.944-.253-1.245-.843l-2.103-4.557H7.897l-2.103 4.557c-.172.422-.558.843-1.245.843H.816c-.644 0-.988-.548-.73-1.097zM38.61 1.468c0-.422.387-.802.818-.802h4.087a.81.81 0 0 1 .817.802v17.256c0 3.586 2.496 6.413 6.239 6.413s6.28-2.827 6.28-6.372V1.468a.81.81 0 0 1 .819-.802h4.087c.43 0 .818.38.818.802v17.55c0 6.415-5.207 11.604-12.004 11.604-6.755 0-11.961-5.19-11.961-11.603V1.468zM87.63 25.4c5.57 0 9.64-4.194 9.64-9.799 0-5.563-4.07-9.757-9.64-9.757h-4.884V25.4h4.885zM77.22 1.48c0-.43.343-.814.771-.814h10.153c8.27 0 15.038 6.718 15.038 14.935 0 8.303-6.769 15.02-15.038 15.02H77.991c-.428 0-.771-.385-.771-.813V1.48zm38.61 0c0-.428.366-.814.773-.814h3.78c.406 0 .772.386.772.813v28.33c0 .427-.366.813-.772.813h-3.78c-.407 0-.773-.386-.773-.813V1.48zm23.868 2.494c3.397-2.657 6.7-3.51 10.608-3.27.516.031.834.43.779.907l-.379 3.702c-.023.451-.359.715-.84.658-2.395-.127-4.864.613-6.747 2.086-4.304 3.367-4.656 9.43-1.309 13.625 3.32 4.162 9.365 5.167 13.67 1.8 2.017-1.578 3.12-3.686 3.63-5.922.083-.444.48-.7.841-.658l3.784.5c.456.023.733.508.685.926-.534 3.986-2.603 7.28-5.596 9.62-6.726 5.262-16.363 4.203-21.676-2.456-5.312-6.66-4.175-16.257 2.55-21.518m32.05-2.506c0-.422.387-.802.818-.802h4.087a.81.81 0 0 1 .817.802v17.256c0 3.586 2.495 6.413 6.239 6.413 3.743 0 6.28-2.827 6.28-6.372V1.468a.81.81 0 0 1 .819-.802h4.087c.43 0 .818.38.818.802v17.55c0 6.415-5.207 11.604-12.004 11.604-6.755 0-11.961-5.19-11.961-11.603V1.468zm36.146 24.56l1.512-2.636c.336-.596 1.05-.596 1.428-.298.21.128 3.61 2.637 6.34 2.637 2.184 0 3.821-1.446 3.821-3.276 0-2.168-1.805-3.656-5.332-5.103-3.948-1.616-7.894-4.169-7.894-9.187 0-3.784 2.771-8.165 9.447-8.165 4.283 0 7.56 2.212 8.399 2.85.419.255.546.978.252 1.402l-1.596 2.425c-.336.51-.966.85-1.47.51-.336-.213-3.527-2.34-5.837-2.34-2.393 0-3.695 1.617-3.695 2.978 0 2 1.554 3.36 4.956 4.765 4.072 1.658 8.775 4.124 8.775 9.61 0 4.381-3.737 8.422-9.658 8.422-5.29 0-8.397-2.51-9.238-3.317-.378-.384-.588-.595-.21-1.277" fill="#FFF" fill-rule="evenodd"/></svg>