<svg xmlns="http://www.w3.org/2000/svg" width="855" height="155"><g fill="none" fill-rule="evenodd"><g fill="#313146" fill-rule="nonzero"><path d="M847.895 108.995l.001 5.079 5.079.001a1.41 1.41 0 1 1 0 2.821l-5.079-.001v5.08a1.41 1.41 0 1 1-2.821 0v-5.078h-5.08a1.41 1.41 0 1 1 0-2.821l5.079-.001v-5.078a1.41 1.41 0 0 1 2.822-.001zM74.366 116.93l7.2 7.651c.488.438 1.423.62 1.968.113.538-.5.52-1.468-.014-1.969l-5.062-5.373H90.65a1.35 1.35 0 0 0 0-2.7H78.458l5.062-5.372c.46-.463.547-1.465.014-1.97-.53-.504-1.5-.342-1.968.113l-7.2 7.651c-.246.262-.366.57-.366.928.012.322.146.695.366.929zm77.268 0l-7.2 7.651c-.488.438-1.423.62-1.968.113-.538-.5-.52-1.468.014-1.969l5.062-5.373H135.35a1.35 1.35 0 0 1 0-2.7h12.192l-5.062-5.372c-.46-.463-.547-1.465-.014-1.97.53-.504 1.5-.342 1.968.113l7.2 7.651c.246.262.366.57.366.928-.012.322-.146.695-.366.929zm42.086-10.13a.72.72 0 0 0 0 1.44h2.295l2.475 11.677c.097.44.386.806.75.803h12c.38.006.73-.34.73-.72 0-.38-.35-.726-.73-.72h-11.415l-.307-1.44H212.2a.742.742 0 0 0 .698-.563l1.68-7.2c.093-.418-.27-.874-.698-.877h-16.185l-.39-1.83a.743.743 0 0 0-.705-.57h-2.88zm4.275 3.84h14.977l-1.342 5.76h-12.413l-1.222-5.76zm3.645 10.56a2.41 2.41 0 0 0-2.4 2.4 2.41 2.41 0 0 0 2.4 2.4 2.41 2.41 0 0 0 2.4-2.4 2.41 2.41 0 0 0-2.4-2.4zm7.2 0a2.41 2.41 0 0 0-2.4 2.4 2.41 2.41 0 0 0 2.4 2.4 2.41 2.41 0 0 0 2.4-2.4 2.41 2.41 0 0 0-2.4-2.4zm-7.2 1.44c.54 0 .96.42.96.96s-.42.96-.96.96-.96-.42-.96-.96.42-.96.96-.96zm7.2 0c.54 0 .96.42.96.96s-.42.96-.96.96-.96-.42-.96-.96.42-.96.96-.96zm69.216-16.639c2.623-.068 3.934 3.2 2.066 5.108l-13.378 13.895a2.1 2.1 0 0 1-3.016 0l-6.788-7.084c-2.82-2.792 1.345-7.116 4.033-4.189l3.77 3.917c.263.272.722.272 1.018 0l10.329-10.728a2.77 2.77 0 0 1 1.966-.919zm47.352 4.412l3.591 3.591 3.592-3.59a1.41 1.41 0 1 1 1.996 1.994L330.995 116l3.592 3.592a1.411 1.411 0 1 1-1.996 1.995l-3.59-3.59-3.592 3.59a1.41 1.41 0 1 1-1.996-1.994l3.592-3.593-3.592-3.591a1.411 1.411 0 0 1 1.995-1.996zm208.566-2.637l-.773.773-.774-.761c-2.382-2.373-6.258-2.373-8.64 0a6.097 6.097 0 0 0 0 8.624c2.867 2.855 5.737 5.708 8.604 8.563a1.16 1.16 0 0 0 1.631 0l8.593-8.576c2.379-2.373 2.382-6.25 0-8.623A6.082 6.082 0 0 0 538.3 106c-1.566 0-3.134.59-4.326 1.776zm4.312.541a3.75 3.75 0 0 1 2.675 1.117 3.77 3.77 0 0 1 0 5.366l-7.761 7.807-7.76-7.794a3.77 3.77 0 0 1 0-5.366 3.754 3.754 0 0 1 5.362 0l1.578 1.59c.452.45 1.177.45 1.629 0l1.59-1.602a3.778 3.778 0 0 1 2.688-1.117h-.001zm67.886-7.924c-.472-.197-1.022-.118-1.453.196l-8.643 6.994h-7.506c-.745 0-1.375.629-1.375 1.375v12.807c0 .746.63 1.375 1.375 1.375h7.543l8.643 6.994c.274.196.549.274.904.274.196 0 .392-.078.629-.118.47-.196.746-.667.746-1.218v-27.46c-.119-.473-.393-.944-.864-1.219zm-16.226 9.9h5.264v10.057h-5.264v-10.058zm14.221 15.832l-6.207-5.067v-11.511l6.246-5.067.001 21.645h-.04zm7.639-13.815l2.694 2.693 2.693-2.693a1.058 1.058 0 1 1 1.497 1.496l-2.694 2.694 2.694 2.693a1.058 1.058 0 1 1-1.497 1.496l-2.693-2.692-2.693 2.693a1.058 1.058 0 1 1-1.497-1.496l2.694-2.694-2.694-2.693a1.058 1.058 0 0 1 1.496-1.497zm61.048 1.432l-9.424-5.435a2.288 2.288 0 0 0-3.43 1.982v10.871a2.287 2.287 0 0 0 3.43 1.982l9.424-5.435a2.287 2.287 0 0 0 0-3.965zm56.909 5.454a8.185 8.185 0 0 0-.74-10.782 8.148 8.148 0 0 0-5.81-2.414c-2.11 0-4.192.795-5.809 2.414-3.205 3.21-3.205 8.422 0 11.632a8.148 8.148 0 0 0 5.81 2.414 8.077 8.077 0 0 0 4.96-1.674l4.932 4.885c.22.22.493.329.794.329.274 0 .576-.11.794-.329.412-.411.412-1.125-.027-1.564l-4.904-4.91zm-6.547 1.05c-1.624 0-3.112-.633-4.269-1.76-2.34-2.34-2.34-6.165 0-8.533a5.998 5.998 0 0 1 4.269-1.761c1.624 0 3.112.633 4.269 1.76 1.156 1.13 1.762 2.644 1.762 4.267 0 1.624-.634 3.11-1.762 4.266-1.13 1.156-2.672 1.762-4.269 1.762zm-330.286.388l7.651-7.2c.438-.488.62-1.423.113-1.968-.5-.538-1.468-.52-1.969.014l-5.373 5.062V104.35a1.35 1.35 0 0 0-2.7 0v12.192l-5.372-5.062c-.463-.46-1.465-.547-1.97-.014-.504.53-.342 1.5.113 1.968l7.651 7.2c.262.246.57.366.928.366.322-.012.695-.146.929-.366z"/><path d="M404.623 127.247V117a1.4 1.4 0 0 1 2.8 0v11.647a1.4 1.4 0 0 1-1.4 1.4H378a1.4 1.4 0 0 1-1.4-1.4V117a1.4 1.4 0 0 1 2.8 0v10.247h25.223zm61.307-24.881l7.651 7.2c.438.488.62 1.423.113 1.968-.5.538-1.468.52-1.969-.014l-5.373-5.062v12.192a1.35 1.35 0 0 0-2.7 0v-12.192l-5.372 5.062c-.463.46-1.465.547-1.97.014-.504-.53-.342-1.5.113-1.968l7.651-7.2c.262-.246.57-.366.928-.366.322.012.695.146.929.366z"/><path d="M477.623 126.247V116a1.4 1.4 0 0 1 2.8 0v11.647a1.4 1.4 0 0 1-1.4 1.4H451a1.4 1.4 0 0 1-1.4-1.4V116a1.4 1.4 0 0 1 2.8 0v10.247h25.223zM787 109.023c-5.787 0-9.838 6.366-9.838 6.366s2.951 6.366 9.838 6.366c6.944 0 9.838-6.366 9.838-6.366s-3.993-6.366-9.838-6.366zm0 10.416a4.025 4.025 0 0 1-4.05-4.05 4.025 4.025 0 0 1 4.05-4.05 4.025 4.025 0 0 1 4.05 4.05 4.025 4.025 0 0 1-4.05 4.05z"/><path d="M788.736 115.389a1.736 1.736 0 1 1-3.471 0 1.736 1.736 0 0 1 3.471 0M19.172 100.393c-.472-.197-1.022-.118-1.453.196l-8.643 6.994H1.57c-.745 0-1.375.629-1.375 1.375v12.807c0 .746.63 1.375 1.375 1.375h7.543l8.643 6.994c.274.196.549.274.904.274.196 0 .392-.078.629-.118.47-.196.746-.667.746-1.218v-27.46c-.119-.473-.393-.944-.864-1.219zm-16.226 9.9H8.21v10.057H2.946v-10.058zm14.221 15.832l-6.207-5.067v-11.511l6.246-5.067.001 21.645h-.04zm9.311-21.763a1.33 1.33 0 0 0 0 1.924c2.317 2.397 3.614 5.618 3.614 9.036 0 3.417-1.297 6.56-3.614 9.035-.55.55-.471 1.454 0 1.925.274.274.629.393.942.393.315 0 .668-.119.942-.393 2.868-2.947 4.4-6.835 4.4-10.96a15.75 15.75 0 0 0-4.4-10.96c-.51-.473-1.333-.551-1.884 0z"/><path d="M24.986 107.779a1.33 1.33 0 0 0-1.924 0 1.33 1.33 0 0 0 0 1.924 7.902 7.902 0 0 1 2.317 5.619 7.91 7.91 0 0 1-2.317 5.618 1.33 1.33 0 0 0 0 1.924c.275.275.63.393.942.393.353 0 .668-.118.943-.393a10.607 10.607 0 0 0 3.142-7.582c0-2.867-1.06-5.5-3.102-7.503z"/></g><path fill="#C9F4F9" fill-rule="nonzero" d="M808.58 68.5c-.53-.118-.696-.95-.5-2.5h8c11.333-14 16.5-25.5 15.5-34.5l1-4.5 1.5 5.5c.666 4.333-1.167 11-5.5 20-4.334 9-8 14.167-11 15.5-3 .333-6 .5-9 .5zm16.42-31c-2-4-4-6-6-6-3 0-7 3-7 13V36c0-5.333 2.167-8 6.5-8s6.5 3.167 6.5 9.5z"/><path stroke="#17C3E6" stroke-linecap="round" stroke-linejoin="round" d="M825.5 37c-.066-6-2.233-9-6.5-9-4.267 0-6.6 2.667-7 8v8.5c3.667 1 5.5 3 5.5 6S816 55.333 813 56"/><path stroke="#CDCDE4" stroke-linecap="round" d="M823.634 19.163c-12.895-3.666-20.562 1.334-23 15-3.657 20.5 9.5-9 14 10"/><path stroke="#161621" stroke-linecap="round" d="M802 37.5c1.408-12.333 7.26-18.5 17.556-18.5C835 19 835.5 34.5 834 40.5s-12.5 28-17 28h-8"/><g fill="#CDCDE4" fill-rule="nonzero"><path d="M838.473 44c-.283 0-.473-.19-.473-.478s.189-.478.473-.478c3.645 0 6.58-3.012 6.58-6.644 0-3.634-2.983-6.644-6.58-6.644-.284 0-.473-.19-.473-.478s.189-.478.473-.478c4.167 0 7.527 3.442 7.527 7.6.048 4.207-3.36 7.6-7.527 7.6z"/><path d="M838.463 48c-.278 0-.463-.186-.463-.466s.185-.466.463-.466c5.84 0 10.61-4.799 10.61-10.668 0-5.871-4.725-10.668-10.61-10.668-.278 0-.463-.186-.463-.466s.185-.466.463-.466c6.395 0 11.537 5.218 11.537 11.6S844.858 48 838.463 48z"/><path d="M838.473 52c-.283 0-.473-.185-.473-.464s.189-.464.473-.464c8.47 0 15.38-6.771 15.38-15.072.001-8.3-6.909-15.072-15.379-15.072-.284 0-.474-.185-.474-.464 0-.28.189-.464.473-.464 8.992 0 16.327 7.188 16.327 16 0 8.812-7.335 16-16.327 16z"/></g><g transform="translate(3 15)"><path stroke="#F3F3F4" stroke-linecap="round" stroke-width=".5" d="M1.5.5v55.509"/><path fill="#C9F4F9" fill-rule="nonzero" d="M0 54h50a4 4 0 0 1 4 4H0v-4z"/><path stroke="#CDCDE4" stroke-linecap="round" stroke-linejoin="round" d="M13 40.5L30 21l18.5 19.5"/><path d="M28 15l4 4m0-4l-4 4m-6 20l4 4m0-4l-4 4" stroke="#CDCDE4" stroke-linecap="round"/><path stroke="#161621" stroke-linecap="round" stroke-linejoin="round" d="M0 0v58h54"/><path stroke="#17C3E6" stroke-linecap="round" stroke-linejoin="round" d="M5.5 35L19 21l13.5 14 14-14"/><circle cx="19" cy="21" r="2" fill="#F7F7F8" fill-rule="nonzero" stroke="#17C3E6"/><circle cx="46" cy="21" r="2" fill="#F7F7F8" fill-rule="nonzero" stroke="#17C3E6"/><circle cx="5" cy="35" r="2" fill="#F7F7F8" fill-rule="nonzero" stroke="#17C3E6"/><circle cx="33" cy="35" r="2" fill="#F7F7F8" fill-rule="nonzero" stroke="#17C3E6"/></g><g transform="translate(73 10)"><path fill="#C9F4F9" fill-rule="nonzero" d="M33.5 14c-8 6.9-12 13.566-12 20 0 6.434 4 12.767 12 19-13-1.084-19.5-7.418-19.5-19s6.5-18.249 19.5-20z"/><path fill="#161621" fill-rule="nonzero" stroke="#161621" stroke-width=".5" d="M33.5 0c-2.78 0-4.842 5.185-7.405 5.87a3.082 3.082 0 0 1-.802.097c-2.176 0-5.093-1.797-7.235-1.797-.482 0-.926.091-1.312.315-2.356 1.362-1.555 6.881-3.467 8.793-1.912 1.913-7.431 1.112-8.794 3.468-1.344 2.322 2.094 6.696 1.385 9.348C5.185 28.658 0 30.72 0 33.5c0 2.78 5.185 4.842 5.87 7.406.71 2.652-2.73 7.025-1.385 9.348 1.362 2.356 6.881 1.555 8.793 3.467 1.913 1.913 1.112 7.432 3.468 8.794.386.224.83.315 1.312.315 2.141 0 5.06-1.797 7.235-1.797.28 0 .549.03.801.097C28.658 61.816 30.72 67 33.5 67c2.78 0 4.842-5.184 7.405-5.87.253-.067.521-.097.802-.097 2.176 0 5.093 1.797 7.235 1.797.482 0 .926-.091 1.312-.315 2.356-1.362 1.555-6.881 3.467-8.793 1.912-1.913 7.431-1.112 8.794-3.468 1.344-2.322-2.094-6.696-1.385-9.348C61.815 38.342 67 36.28 67 33.5c0-2.78-5.185-4.842-5.87-7.406-.71-2.652 2.73-7.025 1.385-9.348-1.362-2.356-6.881-1.555-8.793-3.467-1.913-1.912-1.112-7.431-3.468-8.794-.386-.224-.83-.315-1.312-.315-2.141 0-5.06 1.797-7.235 1.797-.28 0-.549-.03-.801-.097C38.342 5.185 36.28 0 33.5 0m0 .409c1.319 0 2.566 1.466 3.772 2.885 1.097 1.29 2.231 2.624 3.528 2.97.276.074.581.112.907.112 1.162 0 2.494-.471 3.782-.927 1.208-.428 2.457-.87 3.454-.87.443 0 .805.084 1.107.26 1.102.637 1.445 2.506 1.777 4.312.31 1.692.631 3.442 1.606 4.417.974.974 2.724 1.295 4.416 1.606 1.807.331 3.675.674 4.313 1.777.623 1.077-.004 2.848-.61 4.56-.58 1.638-1.18 3.33-.816 4.69.346 1.296 1.68 2.43 2.97 3.527 1.419 1.206 2.885 2.453 2.885 3.772s-1.466 2.566-2.885 3.772c-1.29 1.097-2.624 2.231-2.97 3.528-.364 1.358.236 3.052.816 4.689.606 1.713 1.233 3.484.61 4.56-.638 1.103-2.507 1.446-4.313 1.778-1.692.31-3.442.631-4.416 1.606-.975.974-1.296 2.724-1.607 4.416-.331 1.807-.674 3.675-1.777 4.313-.302.175-.664.26-1.107.26-.997 0-2.245-.443-3.453-.87-1.289-.456-2.62-.928-3.782-.928-.326 0-.63.038-.907.111-1.297.347-2.431 1.68-3.528 2.971-1.206 1.418-2.453 2.885-3.772 2.885s-2.566-1.467-3.772-2.885c-1.097-1.29-2.231-2.624-3.528-2.97a3.516 3.516 0 0 0-.907-.112c-1.162 0-2.494.471-3.782.927-1.208.428-2.457.87-3.453.87-.443 0-.805-.084-1.108-.26-1.102-.637-1.445-2.506-1.777-4.312-.31-1.692-.631-3.442-1.606-4.416-.974-.975-2.724-1.296-4.416-1.607-1.807-.331-3.675-.674-4.313-1.777-.623-1.077.004-2.848.61-4.56.58-1.638 1.18-3.33.816-4.69-.346-1.296-1.68-2.43-2.97-3.527C1.875 36.066.409 34.819.409 33.5s1.466-2.566 2.885-3.772c1.29-1.097 2.624-2.231 2.97-3.528.364-1.358-.236-3.052-.816-4.689-.606-1.712-1.233-3.484-.61-4.56.638-1.103 2.507-1.446 4.313-1.778 1.692-.31 3.442-.631 4.417-1.606.974-.974 1.295-2.724 1.606-4.416.331-1.807.674-3.675 1.777-4.313.302-.175.664-.26 1.107-.26.997 0 2.245.443 3.453.87 1.288.457 2.62.928 3.782.928.326 0 .631-.038.907-.112 1.297-.346 2.431-1.68 3.528-2.97C30.934 1.875 32.181.409 33.5.409"/><circle cx="19.5" cy="19.5" r="19.5" stroke="#17C3E6" transform="translate(14 14)"/><path stroke="#17C3E6" stroke-linecap="round" stroke-linejoin="round" d="M27 33.636L32.091 38l8.727-8"/><circle cx="33.5" cy="4.5" r="1.5" fill="#CDCDE4" fill-rule="nonzero"/><circle cx="5.5" cy="33.5" r="1.5" fill="#CDCDE4" fill-rule="nonzero"/><circle cx="61.5" cy="33.5" r="1.5" fill="#CDCDE4" fill-rule="nonzero"/><circle cx="33.5" cy="61.5" r="1.5" fill="#CDCDE4" fill-rule="nonzero"/><circle cx="33.5" cy="33.5" r="22.5" stroke="#F3F3F4" stroke-width=".5"/></g><g fill-rule="nonzero" transform="translate(156 36)"><path fill="#F7D21E" d="M7.643 15.057a7.638 7.638 0 0 0 7.267-5.285l.037-.122a.375.375 0 0 0-.223-.403l-1.96-.508c-.21-.074-.42.014-.5.202a4.865 4.865 0 0 1-4.62 3.34 4.874 4.874 0 0 1-4.868-4.87c0-2.184 1.468-4.1 3.54-4.686a.383.383 0 0 0 .283-.365c0-.019-.008-.036-.01-.054l-.404-2C6.138.13 5.994 0 5.813 0a.364.364 0 0 0-.127.026C2.356.919 0 3.948 0 7.41a7.62 7.62 0 0 0 2.172 5.333 7.618 7.618 0 0 0 5.471 2.313z"/><circle cx="7.5" cy="7.5" r="2.5" fill="#161621"/></g><g fill-rule="nonzero"><path fill="#313146" d="M191.18 54.829a13.297 13.297 0 0 0 9.537 4.017 13.308 13.308 0 0 0 12.665-9.183l.064-.211a.652.652 0 0 0-.388-.7l-3.416-.883c-.002 0-.003-.002-.005-.003-.01-.004-.02-.002-.03-.005a.66.66 0 0 0-.837.359v.005a8.478 8.478 0 0 1-8.053 5.798c-4.678 0-8.484-3.796-8.484-8.463 0-3.794 2.56-7.124 6.169-8.142.006-.002.007-.006.013-.009a.652.652 0 0 0 .482-.625c0-.033-.014-.062-.02-.093l-.702-3.476-.015-.011a.653.653 0 0 0-.634-.52.648.648 0 0 0-.22.044l-.043.01c-5.761 1.542-9.868 6.806-9.868 12.822a13.22 13.22 0 0 0 3.785 9.27"/><path fill="#1ECEE0" d="M219.152 40.866c0-7.35-5.995-13.329-13.365-13.329-.631 0-1.258.06-1.88.148-.02-.001-.038-.011-.06-.011a.648.648 0 0 0-.27.061.647.647 0 0 0-.38.578l-.002.011c0 .095.023.184.06.265l.69 3.418.017.006a.643.643 0 0 0 .625.518c.038 0 .07-.016.107-.021.009 0 .012.01.022.009a10.25 10.25 0 0 1 1.07-.072c4.656 0 8.443 3.776 8.443 8.419a9.37 9.37 0 0 1-.133 1.48c-.002.013.008.018.008.028-.01.045-.028.089-.028.136 0 .293.197.532.463.614l.005.01 3.57.917.015-.01c.038.009.074.024.115.024a.644.644 0 0 0 .622-.499l.002-.002c.209-.943.284-1.725.284-2.698"/></g><path d="M254.625 47.872l-4.291-9.282h-.129L246 47.872h8.626zm-18.539 8.987l13.347-28.395c.128-.253.343-.464.73-.464h.428c.429 0 .6.211.73.464l13.218 28.395c.257.549-.086 1.097-.73 1.097h-3.733c-.644 0-.944-.253-1.245-.843l-2.103-4.557h-12.831l-2.103 4.557c-.172.422-.558.843-1.245.843h-3.733c-.644 0-.988-.548-.73-1.097zm38.524-27.391c0-.422.387-.802.818-.802h4.087a.81.81 0 0 1 .817.802v17.256c0 3.586 2.496 6.413 6.239 6.413s6.28-2.827 6.28-6.372V29.468a.81.81 0 0 1 .819-.802h4.087c.43 0 .818.38.818.802v17.55c0 6.415-5.207 11.604-12.004 11.604-6.755 0-11.961-5.19-11.961-11.603V29.468zM323.63 53.4c5.57 0 9.64-4.194 9.64-9.799 0-5.563-4.07-9.757-9.64-9.757h-4.884V53.4h4.885zm-10.41-23.92c0-.43.343-.814.771-.814h10.153c8.27 0 15.038 6.718 15.038 14.935 0 8.303-6.769 15.02-15.038 15.02h-10.153c-.428 0-.771-.385-.771-.813V29.48zm38.61 0c0-.428.366-.814.773-.814h3.78c.406 0 .772.386.772.813v28.33c0 .427-.366.813-.772.813h-3.78c-.407 0-.773-.386-.773-.813V29.48zm23.868 2.494c3.397-2.657 6.7-3.51 10.608-3.27.516.031.834.43.779.907l-.379 3.702c-.023.451-.359.715-.84.658-2.395-.127-4.864.613-6.747 2.086-4.304 3.367-4.656 9.43-1.309 13.625 3.32 4.162 9.365 5.167 13.67 1.8 2.017-1.578 3.12-3.686 3.63-5.922.083-.444.48-.7.841-.658l3.784.5c.456.023.733.508.685.926-.534 3.986-2.603 7.28-5.596 9.62-6.726 5.262-16.363 4.203-21.676-2.456-5.312-6.66-4.175-16.257 2.55-21.518m32.05-2.506c0-.422.387-.802.818-.802h4.087a.81.81 0 0 1 .817.802v17.256c0 3.586 2.495 6.413 6.239 6.413 3.743 0 6.28-2.827 6.28-6.372V29.468a.81.81 0 0 1 .819-.802h4.087c.43 0 .818.38.818.802v17.55c0 6.415-5.207 11.604-12.004 11.604-6.755 0-11.961-5.19-11.961-11.603V29.468zm36.146 24.56l1.512-2.636c.336-.596 1.05-.596 1.428-.298.21.128 3.61 2.637 6.34 2.637 2.184 0 3.821-1.446 3.821-3.276 0-2.168-1.805-3.656-5.332-5.103-3.948-1.616-7.894-4.169-7.894-9.187 0-3.784 2.771-8.165 9.447-8.165 4.283 0 7.56 2.212 8.399 2.85.419.255.546.978.252 1.402l-1.596 2.425c-.336.51-.966.85-1.47.51-.336-.213-3.527-2.34-5.837-2.34-2.393 0-3.695 1.617-3.695 2.978 0 2 1.554 3.36 4.956 4.765 4.072 1.658 8.775 4.124 8.775 9.61 0 4.381-3.737 8.422-9.658 8.422-5.29 0-8.397-2.51-9.238-3.317-.378-.384-.588-.595-.21-1.277" fill="#313146" fill-rule="nonzero"/><g transform="translate(478 19)"><path fill="#C4F5FF" fill-rule="nonzero" d="M10.5 40l1 4.5H58l1-4.5z"/><path stroke="#161621" stroke-linecap="round" d="M0 5l11.5 39.5h46.503L68 5"/><circle cx="43" cy="20" r="2" fill="#FFF" fill-rule="nonzero" stroke="#17C3E6"/><circle cx="33" cy="30" r="2" fill="#FFF" fill-rule="nonzero" stroke="#17C3E6"/><circle cx="53" cy="30" r="2" fill="#FFF" fill-rule="nonzero" stroke="#17C3E6"/><circle cx="43" cy="34" r="2" fill="#FFF" fill-rule="nonzero" stroke="#17C3E6"/><circle cx="53" cy="14" r="2" fill="#FFF" fill-rule="nonzero" stroke="#17C3E6"/><path stroke="#161621" d="M2 12c3.946 3.667 7.78 3.667 11.5 0 3.72-3.667 7.887-3.667 12.5 0 4.667 4 9.167 4 13.5 0s8.833-4 13.5 0c4.667 3.333 9.167 3.333 13.5 0"/><circle cx="47" cy="2" r="2" fill="#FFF" fill-rule="nonzero" stroke="#17C3E6"/><circle cx="40" cy="7" r="2" fill="#FFF" fill-rule="nonzero" stroke="#17C3E6"/><path stroke="#CDCDE4" stroke-linecap="round" d="M7 22h13.01M9 26h13.01M11 30h13.01"/><path stroke="#161621" stroke-linecap="round" d="M12 48h46.503"/></g><g transform="translate(562 16)"><rect width="55.5" height="40.5" x="2.25" y="9.25" stroke="#F3F3F4" stroke-width=".5" rx="2"/><path fill="#C9F4F9" fill-rule="nonzero" d="M0 12h59v3H0zm0 35h59v2a2 2 0 0 1-2 2H2a2 2 0 0 1-2-2v-2z"/><rect width="59" height="44" x=".5" y="7.5" stroke="#161621" rx="3"/><g stroke="#17C3E6" transform="translate(18 20)"><circle cx="11.5" cy="11.5" r="11.5"/><path d="M11.5 7.965v6.566m3.283-3.283H8.217" stroke-linecap="round"/></g><path stroke="#161621" d="M.5 15h59m-39-7.5h19V2A1.5 1.5 0 0 0 38 .5H22A1.5 1.5 0 0 0 20.5 2v5.5zm-8 0h4V5A1.5 1.5 0 0 0 15 3.5h-1A1.5 1.5 0 0 0 12.5 5v2.5z"/><path fill="#161621" fill-rule="nonzero" d="M8.5 55a1.5 1.5 0 0 0 1.5-1.5V52H7v1.5A1.5 1.5 0 0 0 8.5 55zm43 0a1.5 1.5 0 0 0 1.5-1.5V52h-3v1.5a1.5 1.5 0 0 0 1.5 1.5z"/><path stroke="#161621" d="M43.5 7.5h4V5A1.5 1.5 0 0 0 46 3.5h-1A1.5 1.5 0 0 0 43.5 5v2.5z"/><path stroke="#CDCDE4" stroke-linecap="round" d="M8 19h5.523M47 19h5.523"/></g><path stroke="#F3F3F4" stroke-width=".5" d="M661.25 16.25h38.5v23.5h-38.5zm-21 29h38.5v23.5h-38.5z"/><g transform="translate(659 14)"><path fill="#CDCDE4" fill-rule="nonzero" d="M15 0h13v7a1 1 0 0 1-1 1H16a1 1 0 0 1-1-1V0z"/><path fill="#C4F5FF" fill-rule="nonzero" d="M1 23h42v6H1z"/><path stroke="#161621" d="M.5 29.5h42V3A2.5 2.5 0 0 0 40 .5H3A2.5 2.5 0 0 0 .5 3v26.5z"/><rect width="2" height="2" x="4.5" y="17.5" stroke="#17C3E6" rx="1"/><rect width="2" height="2" x="9.5" y="17.5" stroke="#17C3E6" rx="1"/><rect width="2" height="2" x="14.5" y="17.5" stroke="#17C3E6" rx="1"/></g><path stroke="#F3F3F4" stroke-width=".5" d="M682.25 45.25h38.5v23.5h-38.5z"/><g transform="translate(638 43)"><path fill="#CDCDE4" fill-rule="nonzero" d="M15 0h13v7a1 1 0 0 1-1 1H16a1 1 0 0 1-1-1V0z"/><path fill="#C4F5FF" fill-rule="nonzero" d="M1 23h42v6H1z"/><path stroke="#161621" d="M.5 29.5h42V3A2.5 2.5 0 0 0 40 .5H3A2.5 2.5 0 0 0 .5 3v26.5z"/><rect width="2" height="2" x="4.5" y="17.5" stroke="#17C3E6" rx="1"/><rect width="2" height="2" x="9.5" y="17.5" stroke="#17C3E6" rx="1"/><rect width="2" height="2" x="14.5" y="17.5" stroke="#17C3E6" rx="1"/></g><g transform="translate(680 43)"><path fill="#CDCDE4" fill-rule="nonzero" d="M15 0h13v7a1 1 0 0 1-1 1H16a1 1 0 0 1-1-1V0z"/><path fill="#C4F5FF" fill-rule="nonzero" d="M1 23h42v6H1z"/><path stroke="#161621" d="M.5 29.5h42V3A2.5 2.5 0 0 0 40 .5H3A2.5 2.5 0 0 0 .5 3v26.5z"/><rect width="2" height="2" x="4.5" y="17.5" stroke="#17C3E6" rx="1"/><rect width="2" height="2" x="9.5" y="17.5" stroke="#17C3E6" rx="1"/><rect width="2" height="2" x="14.5" y="17.5" stroke="#17C3E6" rx="1"/></g><g transform="translate(3 10)"><rect width="40.5" height="48.5" x="2.25" y="9.25" stroke="#F3F3F4" stroke-width=".5" rx="2"/><path fill="#C9F4F9" fill-rule="nonzero" d="M1 55h43v1a2 2 0 0 1-2 2H3a2 2 0 0 1-2-2v-1z"/><rect width="44" height="51" x=".5" y="7.5" stroke="#161621" rx="3"/><path fill="#C9F4F9" fill-rule="nonzero" d="M8 8h28.85a7 7 0 0 1-7 7H15a7 7 0 0 1-7-7z"/><path fill="#F7F7F8" fill-rule="nonzero" stroke="#161621" d="M12 3.498a1.5 1.5 0 0 0-1.5 1.5v3a4.5 4.5 0 0 0 4.5 4.5h15a4.5 4.5 0 0 0 4.5-4.5v-3a1.5 1.5 0 0 0-1.5-1.5h-7.265l-.08-.403a3.216 3.216 0 0 0-6.31 0l-.08.403H12z"/><path stroke="#17C3E6" stroke-linecap="round" d="M9 21l4.643 4.643m0-4.643L9 25.643"/><path stroke="#17C3E6" stroke-linecap="round" stroke-linejoin="round" d="M8 34.711l2.395 2.052L14.5 33M8 47.711l2.395 2.052L14.5 46"/><path stroke="#CDCDE4" stroke-linecap="round" d="M21 22h16M21 35h16M21 48h16"/></g></g></svg>